# xmcd
#
# Track frame offsets:
#	150
#	17709
#	30877
#	49094
#	63806
#	83479
#	96806
#	113546
#	130977
#	147595
#	162818
#	181443
#	195313
#	208607
#	221334
#	236544
#	238026
#	254548
#	263880
#	281505
#
# Disc length: 3953 seconds
#
# Revision: 2
# Processed by: cddbd v1.5.2PL0 Copyright (c) Steve Scherf et al.
# Submitted via: audiograbber 1.83.01
#
DISCID=0d0f6f14
DTITLE=Various Artist - Promo Only Country Radio 2005 - 10
DYEAR=2005
DGENRE=Country
TTITLE0=Shania Twain - Shoes
TTITLE1=Toby Keith - Big Blue Note
TTITLE2=Sugarland - Just Might (Make Me Believe)
TTITLE3=George Strait - She Let Herself Go
TTITLE4=Faith Hill - Like We Never Loved At All
TTITLE5=Trick Pony - Ain't Wastin' Good Whiskey On You
TTITLE6=Clint Black - Code Of The West
TTITLE7=Reba McEntire - You're Gonna Be (Always Loved By Me)
TTITLE8=Dwight Yoakam - Blame The Vain
TTITLE9=Van Zant - Nobody Gonna Tell Me What To Do
TTITLE10=George Jones and Dolly Parton - The Blues Man
TTITLE11=Miranda Lambert - Kerosene
TTITLE12=Jamey Johnson - The Dollar
TTITLE13=Amber Dotson - I Ain't Your Mama
TTITLE14=Patty Loveless - Keep Your Distance
TTITLE15=Darrell Lee White - White Trash Paradise
TTITLE16=Jenai - Hallelujah
TTITLE17=Susan Gibson - Happiest When I'm Moving
TTITLE18=Chris Campbell - Ordinary Guy
TTITLE19=Annie Sims - Dear Heartache
EXTD=
EXTT0=
EXTT1=
EXTT2=
EXTT3=
EXTT4=
EXTT5=
EXTT6=
EXTT7=
EXTT8=
EXTT9=
EXTT10=
EXTT11=
EXTT12=
EXTT13=
EXTT14=
EXTT15=
EXTT16=
EXTT17=
EXTT18=
EXTT19=
PLAYORDER=
